<svg width="64" height="64" viewBox="0 0 64 64" fill="none" xmlns="http://www.w3.org/2000/svg">
  <rect width="64" height="64" rx="14" fill="#028FC1"/>
  <path d="M18 32C18 23.7157 24.7157 17 33 17C41.2843 17 48 23.7157 48 32C48 40.2843 41.2843 47 33 47C24.7157 47 18 40.2843 18 32Z" fill="white" fill-opacity="0.16"/>
  <path d="M21 33C21 25.8203 26.8203 20 34 20C41.1797 20 47 25.8203 47 33C47 40.1797 41.1797 46 34 46H21V33Z" fill="white"/>
  <path d="M28 33C28 29.6863 30.6863 27 34 27C37.3137 27 40 29.6863 40 33C40 36.3137 37.3137 39 34 39C30.6863 39 28 36.3137 28 33Z" fill="#028FC1"/>
</svg>
